<?xml version="1.0" encoding="UTF-8"?>
<svg xmlns="http://www.w3.org/2000/svg" xmlns:xlink="http://www.w3.org/1999/xlink" width="64pt" height="64pt" viewBox="0 0 64 64" version="1.1">
<g id="surface1">
<path style=" stroke:none;fill-rule:nonzero;fill:#FF2D20;fill-opacity:1;" d="M 15.109375 10.015625 C 13.796875 10.070313 3.78125 10.921875 3.0625 10.984375 C 2.351563 11.039063 1.570313 11.375 2.28125 13.09375 C 2.992188 14.820313 14.375 39.90625 14.6875 40.632813 C 15.007813 41.359375 15.835938 42.546875 17.765625 42.070313 C 19.742188 41.585938 26.601563 39.75 30.351563 38.742188 C 32.335938 42.414063 36.375 49.859375 37.125 50.921875 C 38.117188 52.351563 38.8125 52.109375 40.34375 51.625 C 41.539063 51.257813 59.054688 44.8125 59.84375 44.492188 C 60.625 44.148438 61.109375 43.921875 60.578125 43.109375 C 60.1875 42.515625 55.5625 36.1875 53.148438 32.867188 C 54.804688 32.414063 60.703125 30.8125 61.328125 30.632813 C 62.0625 30.4375 62.171875 30.078125 61.765625 29.617188 C 61.375 29.15625 55.882813 22.132813 54.914063 20.9375 C 53.945313 19.75 53.46875 19.960938 52.875 20.046875 C 52.28125 20.132813 45.335938 21.328125 44.53125 21.46875 C 43.71875 21.609375 43.21875 21.9375 43.710938 22.648438 C 44.148438 23.273438 48.71875 29.90625 49.726563 31.367188 L 31.570313 35.8125 L 17.125 11.125 C 16.546875 10.25 16.421875 9.945313 15.109375 10.015625 Z M 14.890625 11.726563 C 15.226563 11.703125 15.1875 11.78125 15.3125 11.992188 C 15.3125 11.992188 28.640625 35.523438 28.867188 35.9375 C 29.109375 36.34375 28.96875 36.46875 28.75 36.523438 C 28.539063 36.570313 18.367188 39.054688 17.820313 39.1875 C 17.273438 39.304688 17.273438 39.25 17.210938 39.0625 C 17.148438 38.867188 5.125 13.492188 4.953125 13.171875 C 4.78125 12.859375 4.796875 12.609375 4.953125 12.609375 C 5.109375 12.609375 14.5625 11.742188 14.890625 11.726563 Z M 53.539063 21.6875 C 53.679688 21.71875 53.820313 21.820313 53.992188 22.0625 C 54.328125 22.53125 58.921875 28.484375 59.09375 28.710938 C 59.265625 28.929688 58.960938 29.070313 58.570313 29.164063 C 58.179688 29.25 51.671875 30.898438 51.671875 30.898438 L 46.351563 23.4375 C 46.203125 23.21875 46.085938 23.007813 46.460938 22.960938 C 46.835938 22.914063 52.875 21.789063 53.148438 21.726563 C 53.28125 21.695313 53.40625 21.65625 53.539063 21.6875 Z M 51.054688 33.234375 C 51.179688 33.25 51.289063 33.335938 51.429688 33.5625 C 51.703125 34.023438 57.28125 41.765625 57.4375 42.023438 C 57.59375 42.28125 57.765625 42.453125 57.25 42.632813 C 56.742188 42.828125 40.03125 48.59375 39.710938 48.734375 C 39.382813 48.875 39.125 48.921875 38.71875 48.304688 C 38.304688 47.679688 32.867188 38.0625 32.867188 38.0625 L 50.5625 33.351563 C 50.78125 33.28125 50.929688 33.21875 51.054688 33.234375 Z "/>
</g>
</svg>
